<mxfile host="app.diagrams.net" modified="2023-08-15T09:54:36.071Z" agent="Mozilla/5.0 (Macintosh; Intel Mac OS X 10_15_7) AppleWebKit/537.36 (KHTML, like Gecko) Chrome/115.0.0.0 Safari/537.36" etag="5vf3IDnH6eFNYFN65HYb" version="21.6.8" type="github">
  <diagram name="Page-1" id="oXkhcKXqqHTmxrn9fmlG">
    <mxGraphModel dx="719" dy="648" grid="1" gridSize="10" guides="1" tooltips="1" connect="1" arrows="1" fold="1" page="1" pageScale="1" pageWidth="827" pageHeight="1169" math="0" shadow="0">
      <root>
        <mxCell id="0" />
        <mxCell id="1" parent="0" />
        <mxCell id="xhGbVaQIMAE0yXhCrkGo-1" value="Données :&amp;nbsp;&lt;br style=&quot;box-sizing: content-box; -webkit-font-smoothing: antialiased; font-family: &amp;quot;Open Sans&amp;quot;, &amp;quot;VP Default&amp;quot;; font-size: 20px; background-color: rgb(248, 249, 250);&quot;&gt;&lt;span style=&quot;font-family: &amp;quot;Open Sans&amp;quot;, &amp;quot;VP Default&amp;quot;; font-size: 20px; background-color: rgb(248, 249, 250);&quot;&gt;S et P&amp;nbsp;&amp;nbsp;&lt;/span&gt;" style="shape=parallelogram;perimeter=parallelogramPerimeter;whiteSpace=wrap;html=1;fixedSize=1;" vertex="1" parent="1">
          <mxGeometry x="350" y="410" width="120" height="60" as="geometry" />
        </mxCell>
        <mxCell id="xhGbVaQIMAE0yXhCrkGo-2" value="" style="endArrow=classic;html=1;rounded=0;exitX=0.5;exitY=1;exitDx=0;exitDy=0;" edge="1" parent="1" source="xhGbVaQIMAE0yXhCrkGo-1">
          <mxGeometry width="50" height="50" relative="1" as="geometry">
            <mxPoint x="390" y="460" as="sourcePoint" />
            <mxPoint x="410" y="510" as="targetPoint" />
          </mxGeometry>
        </mxCell>
        <mxCell id="xhGbVaQIMAE0yXhCrkGo-3" value="P = 0&amp;nbsp; ?&amp;nbsp;" style="rhombus;whiteSpace=wrap;html=1;" vertex="1" parent="1">
          <mxGeometry x="370" y="490" width="80" height="80" as="geometry" />
        </mxCell>
        <mxCell id="xhGbVaQIMAE0yXhCrkGo-4" value="" style="endArrow=classic;html=1;rounded=0;exitDx=0;exitDy=0;" edge="1" parent="1" source="xhGbVaQIMAE0yXhCrkGo-7">
          <mxGeometry width="50" height="50" relative="1" as="geometry">
            <mxPoint x="400" y="710" as="sourcePoint" />
            <mxPoint x="410" y="670" as="targetPoint" />
          </mxGeometry>
        </mxCell>
        <mxCell id="xhGbVaQIMAE0yXhCrkGo-5" value="" style="endArrow=classic;html=1;rounded=0;exitX=1;exitY=0.5;exitDx=0;exitDy=0;" edge="1" parent="1" source="xhGbVaQIMAE0yXhCrkGo-3" target="xhGbVaQIMAE0yXhCrkGo-6">
          <mxGeometry width="50" height="50" relative="1" as="geometry">
            <mxPoint x="390" y="650" as="sourcePoint" />
            <mxPoint x="600" y="540" as="targetPoint" />
          </mxGeometry>
        </mxCell>
        <mxCell id="xhGbVaQIMAE0yXhCrkGo-6" value="&lt;span style=&quot;color: rgb(0, 0, 0); font-family: Helvetica, &amp;quot;VP Default&amp;quot;; font-size: 12px; font-style: normal; font-variant-ligatures: normal; font-variant-caps: normal; font-weight: 400; letter-spacing: normal; orphans: 2; text-align: center; text-indent: 0px; text-transform: none; widows: 2; word-spacing: 0px; -webkit-text-stroke-width: 0px; background-color: rgb(248, 249, 250); text-decoration-thickness: initial; text-decoration-style: initial; text-decoration-color: initial; float: none; display: inline !important;&quot;&gt;n₁ = 0 et n₂ = S&amp;nbsp;&lt;/span&gt;" style="rounded=1;whiteSpace=wrap;html=1;" vertex="1" parent="1">
          <mxGeometry x="480" y="500" width="120" height="60" as="geometry" />
        </mxCell>
        <mxCell id="xhGbVaQIMAE0yXhCrkGo-8" value="" style="endArrow=classic;html=1;rounded=0;exitX=1;exitY=0.5;exitDx=0;exitDy=0;" edge="1" parent="1" source="xhGbVaQIMAE0yXhCrkGo-7" target="xhGbVaQIMAE0yXhCrkGo-9">
          <mxGeometry width="50" height="50" relative="1" as="geometry">
            <mxPoint x="520" y="650" as="sourcePoint" />
            <mxPoint x="520" y="710" as="targetPoint" />
          </mxGeometry>
        </mxCell>
        <mxCell id="xhGbVaQIMAE0yXhCrkGo-9" value="&lt;meta charset=&quot;utf-8&quot;&gt;&lt;span style=&quot;color: rgb(0, 0, 0); font-family: Helvetica, &amp;quot;VP Default&amp;quot;; font-size: 12px; font-style: normal; font-variant-ligatures: normal; font-variant-caps: normal; font-weight: 400; letter-spacing: normal; orphans: 2; text-align: center; text-indent: 0px; text-transform: none; widows: 2; word-spacing: 0px; -webkit-text-stroke-width: 0px; background-color: rgb(248, 249, 250); text-decoration-thickness: initial; text-decoration-style: initial; text-decoration-color: initial; float: none; display: inline !important;&quot;&gt;S &amp;gt;&amp;nbsp; 0&amp;nbsp;&lt;/span&gt;" style="rhombus;whiteSpace=wrap;html=1;" vertex="1" parent="1">
          <mxGeometry x="480" y="600" width="80" height="80" as="geometry" />
        </mxCell>
        <mxCell id="xhGbVaQIMAE0yXhCrkGo-10" value="" style="shape=waypoint;sketch=0;fillStyle=solid;size=6;pointerEvents=1;points=[];fillColor=none;resizable=0;rotatable=0;perimeter=centerPerimeter;snapToPoint=1;" vertex="1" parent="1">
          <mxGeometry x="510" y="670" width="20" height="20" as="geometry" />
        </mxCell>
        <mxCell id="xhGbVaQIMAE0yXhCrkGo-13" value="" style="endArrow=classic;html=1;rounded=0;exitDx=0;exitDy=0;" edge="1" parent="1" source="xhGbVaQIMAE0yXhCrkGo-18">
          <mxGeometry width="50" height="50" relative="1" as="geometry">
            <mxPoint x="410" y="750" as="sourcePoint" />
            <mxPoint x="409.5" y="825" as="targetPoint" />
            <Array as="points">
              <mxPoint x="410" y="800" />
            </Array>
          </mxGeometry>
        </mxCell>
        <mxCell id="xhGbVaQIMAE0yXhCrkGo-14" value="n₁ = 1 et n₂ =&amp;nbsp; 1" style="rounded=1;whiteSpace=wrap;html=1;" vertex="1" parent="1">
          <mxGeometry x="600" y="610" width="120" height="60" as="geometry" />
        </mxCell>
        <mxCell id="xhGbVaQIMAE0yXhCrkGo-15" value="" style="endArrow=classic;html=1;rounded=0;exitX=1;exitY=0.5;exitDx=0;exitDy=0;entryX=0;entryY=0.5;entryDx=0;entryDy=0;" edge="1" parent="1" target="xhGbVaQIMAE0yXhCrkGo-14">
          <mxGeometry width="50" height="50" relative="1" as="geometry">
            <mxPoint x="560" y="641.5" as="sourcePoint" />
            <mxPoint x="600" y="650" as="targetPoint" />
          </mxGeometry>
        </mxCell>
        <mxCell id="xhGbVaQIMAE0yXhCrkGo-16" value="n₁ = -1 et n₂ = -1&amp;nbsp;" style="rounded=1;whiteSpace=wrap;html=1;" vertex="1" parent="1">
          <mxGeometry x="600" y="680" width="120" height="60" as="geometry" />
        </mxCell>
        <mxCell id="xhGbVaQIMAE0yXhCrkGo-17" value="" style="endArrow=classic;html=1;rounded=0;exitX=1;exitY=0.5;exitDx=0;exitDy=0;entryX=0;entryY=0.5;entryDx=0;entryDy=0;" edge="1" parent="1" target="xhGbVaQIMAE0yXhCrkGo-16">
          <mxGeometry width="50" height="50" relative="1" as="geometry">
            <mxPoint x="520" y="681.5" as="sourcePoint" />
            <mxPoint x="610" y="678.5" as="targetPoint" />
            <Array as="points">
              <mxPoint x="520" y="710" />
            </Array>
          </mxGeometry>
        </mxCell>
        <mxCell id="xhGbVaQIMAE0yXhCrkGo-19" value="" style="shape=waypoint;sketch=0;fillStyle=solid;size=6;pointerEvents=1;points=[];fillColor=none;resizable=0;rotatable=0;perimeter=centerPerimeter;snapToPoint=1;" vertex="1" parent="1">
          <mxGeometry x="400" y="670" width="20" height="20" as="geometry" />
        </mxCell>
        <mxCell id="xhGbVaQIMAE0yXhCrkGo-21" value="" style="endArrow=classic;html=1;rounded=0;exitX=1;exitY=0.5;exitDx=0;exitDy=0;" edge="1" parent="1" target="xhGbVaQIMAE0yXhCrkGo-22" source="xhGbVaQIMAE0yXhCrkGo-18">
          <mxGeometry width="50" height="50" relative="1" as="geometry">
            <mxPoint x="450" y="860" as="sourcePoint" />
            <mxPoint x="520" y="900" as="targetPoint" />
          </mxGeometry>
        </mxCell>
        <mxCell id="xhGbVaQIMAE0yXhCrkGo-22" value="&lt;meta charset=&quot;utf-8&quot;&gt;&lt;span style=&quot;color: rgb(0, 0, 0); font-family: Helvetica, &amp;quot;VP Default&amp;quot;; font-size: 12px; font-style: normal; font-variant-ligatures: normal; font-variant-caps: normal; font-weight: 400; letter-spacing: normal; orphans: 2; text-align: center; text-indent: 0px; text-transform: none; widows: 2; word-spacing: 0px; -webkit-text-stroke-width: 0px; background-color: rgb(248, 249, 250); text-decoration-thickness: initial; text-decoration-style: initial; text-decoration-color: initial; float: none; display: inline !important;&quot;&gt;S &amp;gt;&amp;nbsp; 0&amp;nbsp;&lt;/span&gt;" style="rhombus;whiteSpace=wrap;html=1;" vertex="1" parent="1">
          <mxGeometry x="480" y="750" width="80" height="80" as="geometry" />
        </mxCell>
        <mxCell id="xhGbVaQIMAE0yXhCrkGo-23" value="" style="shape=waypoint;sketch=0;fillStyle=solid;size=6;pointerEvents=1;points=[];fillColor=none;resizable=0;rotatable=0;perimeter=centerPerimeter;snapToPoint=1;" vertex="1" parent="1">
          <mxGeometry x="510" y="820" width="20" height="20" as="geometry" />
        </mxCell>
        <mxCell id="xhGbVaQIMAE0yXhCrkGo-24" value="n₁ = √p et n₂ =&amp;nbsp; √p&amp;nbsp;" style="rounded=1;whiteSpace=wrap;html=1;" vertex="1" parent="1">
          <mxGeometry x="600" y="760" width="120" height="60" as="geometry" />
        </mxCell>
        <mxCell id="xhGbVaQIMAE0yXhCrkGo-25" value="" style="endArrow=classic;html=1;rounded=0;exitX=1;exitY=0.5;exitDx=0;exitDy=0;" edge="1" parent="1">
          <mxGeometry width="50" height="50" relative="1" as="geometry">
            <mxPoint x="560" y="791.5" as="sourcePoint" />
            <mxPoint x="600" y="792" as="targetPoint" />
          </mxGeometry>
        </mxCell>
        <mxCell id="xhGbVaQIMAE0yXhCrkGo-26" value="n₁ = -√p et n₂ =&amp;nbsp; -√p&amp;nbsp;" style="rounded=1;whiteSpace=wrap;html=1;" vertex="1" parent="1">
          <mxGeometry x="590" y="870" width="120" height="60" as="geometry" />
        </mxCell>
        <mxCell id="xhGbVaQIMAE0yXhCrkGo-34" value="&lt;span style=&quot;color: rgb(0, 0, 0); font-family: Helvetica, &amp;quot;VP Default&amp;quot;; font-size: 12px; font-style: normal; font-variant-ligatures: normal; font-variant-caps: normal; font-weight: 400; letter-spacing: normal; orphans: 2; text-align: center; text-indent: 0px; text-transform: none; widows: 2; word-spacing: 0px; -webkit-text-stroke-width: 0px; background-color: rgb(248, 249, 250); text-decoration-thickness: initial; text-decoration-style: initial; text-decoration-color: initial; float: none; display: inline !important;&quot;&gt;S &amp;lt;&amp;nbsp;&amp;nbsp; 0&amp;nbsp;&lt;/span&gt;" style="rhombus;whiteSpace=wrap;html=1;" vertex="1" parent="1">
          <mxGeometry x="480" y="860" width="80" height="80" as="geometry" />
        </mxCell>
        <mxCell id="xhGbVaQIMAE0yXhCrkGo-35" value="" style="shape=waypoint;sketch=0;fillStyle=solid;size=6;pointerEvents=1;points=[];fillColor=none;resizable=0;rotatable=0;perimeter=centerPerimeter;snapToPoint=1;" vertex="1" parent="1">
          <mxGeometry x="510" y="930" width="20" height="20" as="geometry" />
        </mxCell>
        <mxCell id="xhGbVaQIMAE0yXhCrkGo-36" value="n₁ = √p et n₂ =&amp;nbsp; -√p&amp;nbsp;" style="rounded=1;whiteSpace=wrap;html=1;" vertex="1" parent="1">
          <mxGeometry x="590" y="960" width="120" height="60" as="geometry" />
        </mxCell>
        <mxCell id="xhGbVaQIMAE0yXhCrkGo-37" value="" style="endArrow=classic;html=1;rounded=0;exitX=1;exitY=0.5;exitDx=0;exitDy=0;entryX=0.5;entryY=0;entryDx=0;entryDy=0;" edge="1" parent="1" target="xhGbVaQIMAE0yXhCrkGo-34">
          <mxGeometry width="50" height="50" relative="1" as="geometry">
            <mxPoint x="520" y="830" as="sourcePoint" />
            <mxPoint x="530" y="880" as="targetPoint" />
          </mxGeometry>
        </mxCell>
        <mxCell id="xhGbVaQIMAE0yXhCrkGo-38" value="" style="endArrow=classic;html=1;rounded=0;exitX=1;exitY=0.5;exitDx=0;exitDy=0;entryX=0;entryY=0.5;entryDx=0;entryDy=0;" edge="1" parent="1" target="xhGbVaQIMAE0yXhCrkGo-26">
          <mxGeometry width="50" height="50" relative="1" as="geometry">
            <mxPoint x="560" y="901.5" as="sourcePoint" />
            <mxPoint x="650" y="898.5" as="targetPoint" />
          </mxGeometry>
        </mxCell>
        <mxCell id="xhGbVaQIMAE0yXhCrkGo-39" value="" style="endArrow=classic;html=1;rounded=0;exitX=1;exitY=0.5;exitDx=0;exitDy=0;entryX=0;entryY=0.5;entryDx=0;entryDy=0;" edge="1" parent="1" target="xhGbVaQIMAE0yXhCrkGo-36">
          <mxGeometry width="50" height="50" relative="1" as="geometry">
            <mxPoint x="520" y="941.5" as="sourcePoint" />
            <mxPoint x="610" y="938.5" as="targetPoint" />
            <Array as="points">
              <mxPoint x="520" y="990" />
            </Array>
          </mxGeometry>
        </mxCell>
        <mxCell id="xhGbVaQIMAE0yXhCrkGo-7" value="P = 1&amp;nbsp;" style="rhombus;whiteSpace=wrap;html=1;" vertex="1" parent="1">
          <mxGeometry x="370" y="600" width="80" height="80" as="geometry" />
        </mxCell>
        <mxCell id="xhGbVaQIMAE0yXhCrkGo-46" value="" style="endArrow=classic;html=1;rounded=0;exitDx=0;exitDy=0;entryX=0.5;entryY=0;entryDx=0;entryDy=0;" edge="1" parent="1" source="xhGbVaQIMAE0yXhCrkGo-47" target="xhGbVaQIMAE0yXhCrkGo-7">
          <mxGeometry width="50" height="50" relative="1" as="geometry">
            <mxPoint x="400" y="550" as="sourcePoint" />
            <mxPoint x="450" y="500" as="targetPoint" />
          </mxGeometry>
        </mxCell>
        <mxCell id="xhGbVaQIMAE0yXhCrkGo-48" value="" style="endArrow=classic;html=1;rounded=0;exitX=0.5;exitY=1;exitDx=0;exitDy=0;entryDx=0;entryDy=0;" edge="1" parent="1" source="xhGbVaQIMAE0yXhCrkGo-3" target="xhGbVaQIMAE0yXhCrkGo-47">
          <mxGeometry width="50" height="50" relative="1" as="geometry">
            <mxPoint x="410" y="570" as="sourcePoint" />
            <mxPoint x="410" y="600" as="targetPoint" />
          </mxGeometry>
        </mxCell>
        <mxCell id="xhGbVaQIMAE0yXhCrkGo-47" value="" style="shape=waypoint;sketch=0;fillStyle=solid;size=6;pointerEvents=1;points=[];fillColor=none;resizable=0;rotatable=0;perimeter=centerPerimeter;snapToPoint=1;" vertex="1" parent="1">
          <mxGeometry x="400" y="560" width="20" height="20" as="geometry" />
        </mxCell>
        <mxCell id="xhGbVaQIMAE0yXhCrkGo-49" value="" style="endArrow=classic;html=1;rounded=0;exitDx=0;exitDy=0;" edge="1" parent="1" source="xhGbVaQIMAE0yXhCrkGo-19" target="xhGbVaQIMAE0yXhCrkGo-18">
          <mxGeometry width="50" height="50" relative="1" as="geometry">
            <mxPoint x="410" y="680" as="sourcePoint" />
            <mxPoint x="409.5" y="825" as="targetPoint" />
            <Array as="points" />
          </mxGeometry>
        </mxCell>
        <mxCell id="xhGbVaQIMAE0yXhCrkGo-18" value="P =&amp;nbsp; n²" style="rhombus;whiteSpace=wrap;html=1;" vertex="1" parent="1">
          <mxGeometry x="370" y="750" width="80" height="80" as="geometry" />
        </mxCell>
        <mxCell id="xhGbVaQIMAE0yXhCrkGo-51" value="" style="endArrow=classic;html=1;rounded=0;exitDx=0;exitDy=0;" edge="1" parent="1" source="xhGbVaQIMAE0yXhCrkGo-68">
          <mxGeometry width="50" height="50" relative="1" as="geometry">
            <mxPoint x="410" y="1030" as="sourcePoint" />
            <mxPoint x="409.5" y="1105" as="targetPoint" />
            <Array as="points">
              <mxPoint x="410" y="1080" />
            </Array>
          </mxGeometry>
        </mxCell>
        <mxCell id="xhGbVaQIMAE0yXhCrkGo-52" value="" style="endArrow=classic;html=1;rounded=0;exitX=1;exitY=0.5;exitDx=0;exitDy=0;" edge="1" parent="1" source="xhGbVaQIMAE0yXhCrkGo-64" target="xhGbVaQIMAE0yXhCrkGo-53">
          <mxGeometry width="50" height="50" relative="1" as="geometry">
            <mxPoint x="450" y="1140" as="sourcePoint" />
            <mxPoint x="520" y="1180" as="targetPoint" />
          </mxGeometry>
        </mxCell>
        <mxCell id="xhGbVaQIMAE0yXhCrkGo-53" value="&lt;meta charset=&quot;utf-8&quot;&gt;&lt;span style=&quot;color: rgb(0, 0, 0); font-family: Helvetica, &amp;quot;VP Default&amp;quot;; font-size: 12px; font-style: normal; font-variant-ligatures: normal; font-variant-caps: normal; font-weight: 400; letter-spacing: normal; orphans: 2; text-align: center; text-indent: 0px; text-transform: none; widows: 2; word-spacing: 0px; -webkit-text-stroke-width: 0px; background-color: rgb(248, 249, 250); text-decoration-thickness: initial; text-decoration-style: initial; text-decoration-color: initial; float: none; display: inline !important;&quot;&gt;S &amp;gt;&amp;nbsp; 0&amp;nbsp;&lt;/span&gt;" style="rhombus;whiteSpace=wrap;html=1;" vertex="1" parent="1">
          <mxGeometry x="480" y="1030" width="80" height="80" as="geometry" />
        </mxCell>
        <mxCell id="xhGbVaQIMAE0yXhCrkGo-54" value="" style="shape=waypoint;sketch=0;fillStyle=solid;size=6;pointerEvents=1;points=[];fillColor=none;resizable=0;rotatable=0;perimeter=centerPerimeter;snapToPoint=1;" vertex="1" parent="1">
          <mxGeometry x="510" y="1100" width="20" height="20" as="geometry" />
        </mxCell>
        <mxCell id="xhGbVaQIMAE0yXhCrkGo-55" value="n₁ = 1 et n₂ =&amp;nbsp; P&amp;nbsp;" style="rounded=1;whiteSpace=wrap;html=1;" vertex="1" parent="1">
          <mxGeometry x="590" y="1040" width="120" height="60" as="geometry" />
        </mxCell>
        <mxCell id="xhGbVaQIMAE0yXhCrkGo-56" value="" style="endArrow=classic;html=1;rounded=0;exitX=1;exitY=0.5;exitDx=0;exitDy=0;" edge="1" parent="1">
          <mxGeometry width="50" height="50" relative="1" as="geometry">
            <mxPoint x="560" y="1071.5" as="sourcePoint" />
            <mxPoint x="600" y="1072" as="targetPoint" />
          </mxGeometry>
        </mxCell>
        <mxCell id="xhGbVaQIMAE0yXhCrkGo-57" value="n₁ = 1 et n₂ =&amp;nbsp; P&amp;nbsp;" style="rounded=1;whiteSpace=wrap;html=1;" vertex="1" parent="1">
          <mxGeometry x="590" y="1120" width="120" height="60" as="geometry" />
        </mxCell>
        <mxCell id="xhGbVaQIMAE0yXhCrkGo-61" value="" style="endArrow=classic;html=1;rounded=0;exitX=1;exitY=0.5;exitDx=0;exitDy=0;entryX=0;entryY=0.5;entryDx=0;entryDy=0;" edge="1" parent="1" target="xhGbVaQIMAE0yXhCrkGo-57">
          <mxGeometry width="50" height="50" relative="1" as="geometry">
            <mxPoint x="520" y="1110" as="sourcePoint" />
            <mxPoint x="520" y="1140" as="targetPoint" />
            <Array as="points">
              <mxPoint x="520" y="1150" />
            </Array>
          </mxGeometry>
        </mxCell>
        <mxCell id="xhGbVaQIMAE0yXhCrkGo-64" value="P =&amp;nbsp; S -1" style="rhombus;whiteSpace=wrap;html=1;" vertex="1" parent="1">
          <mxGeometry x="370" y="1030" width="80" height="80" as="geometry" />
        </mxCell>
        <mxCell id="xhGbVaQIMAE0yXhCrkGo-65" value="" style="endArrow=classic;html=1;rounded=0;exitDx=0;exitDy=0;entryX=0.5;entryY=0;entryDx=0;entryDy=0;" edge="1" parent="1" source="xhGbVaQIMAE0yXhCrkGo-66" target="xhGbVaQIMAE0yXhCrkGo-64">
          <mxGeometry width="50" height="50" relative="1" as="geometry">
            <mxPoint x="409.5" y="830" as="sourcePoint" />
            <mxPoint x="410" y="1010" as="targetPoint" />
            <Array as="points" />
          </mxGeometry>
        </mxCell>
        <mxCell id="xhGbVaQIMAE0yXhCrkGo-67" value="" style="endArrow=classic;html=1;rounded=0;exitDx=0;exitDy=0;entryDx=0;entryDy=0;" edge="1" parent="1" target="xhGbVaQIMAE0yXhCrkGo-66">
          <mxGeometry width="50" height="50" relative="1" as="geometry">
            <mxPoint x="409.5" y="830" as="sourcePoint" />
            <mxPoint x="410" y="1030" as="targetPoint" />
            <Array as="points" />
          </mxGeometry>
        </mxCell>
        <mxCell id="xhGbVaQIMAE0yXhCrkGo-66" value="" style="shape=waypoint;sketch=0;fillStyle=solid;size=6;pointerEvents=1;points=[];fillColor=none;resizable=0;rotatable=0;perimeter=centerPerimeter;snapToPoint=1;" vertex="1" parent="1">
          <mxGeometry x="400" y="820" width="20" height="20" as="geometry" />
        </mxCell>
        <mxCell id="xhGbVaQIMAE0yXhCrkGo-69" value="" style="endArrow=classic;html=1;rounded=0;exitDx=0;exitDy=0;" edge="1" parent="1" source="xhGbVaQIMAE0yXhCrkGo-64" target="xhGbVaQIMAE0yXhCrkGo-68">
          <mxGeometry width="50" height="50" relative="1" as="geometry">
            <mxPoint x="410" y="1110" as="sourcePoint" />
            <mxPoint x="409.5" y="1105" as="targetPoint" />
            <Array as="points" />
          </mxGeometry>
        </mxCell>
        <mxCell id="xhGbVaQIMAE0yXhCrkGo-68" value="" style="shape=waypoint;sketch=0;fillStyle=solid;size=6;pointerEvents=1;points=[];fillColor=none;resizable=0;rotatable=0;perimeter=centerPerimeter;snapToPoint=1;" vertex="1" parent="1">
          <mxGeometry x="400" y="1100" width="20" height="20" as="geometry" />
        </mxCell>
        <mxCell id="xhGbVaQIMAE0yXhCrkGo-70" value="P= |S|-1" style="rhombus;whiteSpace=wrap;html=1;" vertex="1" parent="1">
          <mxGeometry x="370" y="1180" width="80" height="80" as="geometry" />
        </mxCell>
        <mxCell id="xhGbVaQIMAE0yXhCrkGo-71" value="" style="endArrow=classic;html=1;rounded=0;exitX=1;exitY=0.5;exitDx=0;exitDy=0;" edge="1" parent="1" source="xhGbVaQIMAE0yXhCrkGo-70" target="xhGbVaQIMAE0yXhCrkGo-72">
          <mxGeometry width="50" height="50" relative="1" as="geometry">
            <mxPoint x="390" y="1340" as="sourcePoint" />
            <mxPoint x="600" y="1230" as="targetPoint" />
          </mxGeometry>
        </mxCell>
        <mxCell id="xhGbVaQIMAE0yXhCrkGo-72" value="&lt;span style=&quot;color: rgb(0, 0, 0); font-family: Helvetica, &amp;quot;VP Default&amp;quot;; font-size: 12px; font-style: normal; font-variant-ligatures: normal; font-variant-caps: normal; font-weight: 400; letter-spacing: normal; orphans: 2; text-align: center; text-indent: 0px; text-transform: none; widows: 2; word-spacing: 0px; -webkit-text-stroke-width: 0px; background-color: rgb(248, 249, 250); text-decoration-thickness: initial; text-decoration-style: initial; text-decoration-color: initial; float: none; display: inline !important;&quot;&gt;n₁ = 0 et n₂ = S&amp;nbsp;&lt;/span&gt;" style="rounded=1;whiteSpace=wrap;html=1;" vertex="1" parent="1">
          <mxGeometry x="480" y="1190" width="120" height="60" as="geometry" />
        </mxCell>
        <mxCell id="xhGbVaQIMAE0yXhCrkGo-73" value="" style="endArrow=classic;html=1;rounded=0;exitX=0.5;exitY=1;exitDx=0;exitDy=0;entryDx=0;entryDy=0;" edge="1" parent="1" source="xhGbVaQIMAE0yXhCrkGo-70">
          <mxGeometry width="50" height="50" relative="1" as="geometry">
            <mxPoint x="410" y="1260" as="sourcePoint" />
            <mxPoint x="410" y="1260" as="targetPoint" />
          </mxGeometry>
        </mxCell>
        <mxCell id="xhGbVaQIMAE0yXhCrkGo-75" value="" style="endArrow=classic;html=1;rounded=0;exitDx=0;exitDy=0;" edge="1" parent="1">
          <mxGeometry width="50" height="50" relative="1" as="geometry">
            <mxPoint x="413" y="1110" as="sourcePoint" />
            <mxPoint x="410" y="1180" as="targetPoint" />
            <Array as="points" />
          </mxGeometry>
        </mxCell>
      </root>
    </mxGraphModel>
  </diagram>
</mxfile>
